<?xml version="1.0" encoding="utf-8"?>
<!-- Generator: Adobe Illustrator 16.0.0, SVG Export Plug-In . SVG Version: 6.00 Build 0)  -->
<!DOCTYPE svg PUBLIC "-//W3C//DTD SVG 1.1//EN" "http://www.w3.org/Graphics/SVG/1.1/DTD/svg11.dtd">
<svg version="1.1" id="Layer_2" xmlns="http://www.w3.org/2000/svg" xmlns:xlink="http://www.w3.org/1999/xlink" x="0px" y="0px"
	 width="96px" height="96px" viewBox="0 0 96 96" enable-background="new 0 0 96 96" xml:space="preserve">
<g>
	<rect x="18.765" y="31.426" width="58.345" height="8.821"/>
	<path d="M94.35,47.883C94.35,22.325,73.558,1.532,48,1.532S1.65,22.325,1.65,47.883c0,25.149,20.137,45.664,45.132,46.315
		l0.233,0.269v-0.258v-9.277V42.025H18.838v8.689h19.359v32.909c-15.698-4.308-27.27-18.692-27.27-35.741
		C10.928,27.44,27.559,10.81,48,10.81S85.072,27.44,85.072,47.883c0,17.049-11.572,31.433-27.271,35.741V50.715H77.17v-8.689H48.984
		v42.906v9.277v0.259l0.234-0.27C74.213,93.547,94.35,73.031,94.35,47.883z"/>
</g>
</svg>
